<svg xmlns="http://www.w3.org/2000/svg" width="15.75" height="21" viewBox="0 0 15.75 21">
  <g id="padlock" transform="translate(-5 -1)">
    <path id="Path_158" data-name="Path 158" d="M12.875,1A5.882,5.882,0,0,0,6.969,6.906V9.531A1.934,1.934,0,0,0,5,11.5v8.531A1.934,1.934,0,0,0,6.969,22H18.781a1.934,1.934,0,0,0,1.969-1.969V11.5a1.934,1.934,0,0,0-1.969-1.969V6.906A5.882,5.882,0,0,0,12.875,1Zm6.563,10.5v8.531a.62.62,0,0,1-.656.656H6.969a.62.62,0,0,1-.656-.656V11.5a.62.62,0,0,1,.656-.656H18.781A.62.62,0,0,1,19.438,11.5ZM8.281,9.531V6.906a4.594,4.594,0,0,1,9.188,0V9.531Z"/>
    <path id="Path_159" data-name="Path 159" d="M15.969,19A1.934,1.934,0,0,0,14,20.969a1.912,1.912,0,0,0,1.313,1.837V24.25a.656.656,0,0,0,1.313,0V22.806a1.912,1.912,0,0,0,1.313-1.837A1.934,1.934,0,0,0,15.969,19Zm0,2.625a.656.656,0,1,1,.656-.656A.62.62,0,0,1,15.969,21.625Z" transform="translate(-3.094 -6.188)"/>
  </g>
</svg>
