<svg id="Outline" viewBox="0 0 64 64" xmlns="http://www.w3.org/2000/svg"><path d="m32 20a6 6 0 1 1 6-6 6.006 6.006 0 0 1 -6 6zm0-10a4 4 0 1 0 4 4 4 4 0 0 0 -4-4z"/><path d="m37 21h-10a7.008 7.008 0 0 0 -7 7v7a4 4 0 0 0 4 4h7.5a3.493 3.493 0 0 0 .65-.06 1.03 1.03 0 0 0 .35.06h7.5a4.069 4.069 0 0 0 .79-.08 3.944 3.944 0 0 0 2.62-1.84 9.219 9.219 0 0 1 .49-1.21 3.572 3.572 0 0 0 .1-.87v-7a7.008 7.008 0 0 0 -7-7zm4.61 15.19a2.012 2.012 0 0 1 -1.61.81h-5.34a3.438 3.438 0 0 0 .34-1.5 3.5 3.5 0 0 0 -3.5-3.5h-4.5v-3a1 1 0 0 0 -2 0v4a1 1 0 0 0 1 1h5.5a1.5 1.5 0 0 1 0 3h-7.5a2.006 2.006 0 0 1 -2-2v-7a5 5 0 0 1 5-5h10a5 5 0 0 1 5 5v7a2.112 2.112 0 0 1 -.02.26 1.907 1.907 0 0 1 -.37.93z"/><path d="m38 34h-5.5a1 1 0 0 1 0-2h4.5v-3a1 1 0 0 1 2 0v4a1 1 0 0 1 -1 1z"/><path d="m12.4 30a6 6 0 1 1 6-6 6.007 6.007 0 0 1 -6 6zm0-10a4 4 0 1 0 4 4 4 4 0 0 0 -4-4z"/><path d="m32 51-9-.01a1 1 0 0 1 0-2l8 .01a3 3 0 0 0 -3-3h-2.41a2.988 2.988 0 0 1 -2.925-2.325l-1.615-4.935c-.932-4.103-2.967-5.74-7.05-5.74h-3a4.971 4.971 0 0 0 -4.933 4.189 1 1 0 1 1 -1.974-.318 6.963 6.963 0 0 1 6.907-5.871h3c5.013 0 7.865 2.291 8.976 7.21l1.614 4.93a1.033 1.033 0 0 0 1 .86h2.41a5.006 5.006 0 0 1 5 5v1a1 1 0 0 1 -1 1z"/><path d="m27 58h-13.319a9 9 0 0 1 -8.856-7.391l-2.37-11.042-.007-.031a3 3 0 0 1 2.952-3.536h7.266a5 5 0 0 1 4.919 4.1l1.823 8.031a1.014 1.014 0 0 0 .992.869l2.593-.006h.007a5 5 0 0 1 5 5v3.006a1 1 0 0 1 -1 1zm-22.586-18.834 2.373 11.055a7.005 7.005 0 0 0 6.894 5.779h12.319v-2.006a3 3 0 0 0 -3-3l-2.6.006a3 3 0 0 1 -2.953-2.464l-1.823-8.031a3.012 3.012 0 0 0 -2.958-2.505h-7.266a1 1 0 0 0 -.986 1.166z"/><path d="m25 62.041h-2v-4.041h-8v4.041h-2v-6.041h12z"/><path d="m52 62.041h-2v-4.041h-8v4.041h-2v-6.041h12z"/><path d="m51.682 30a6 6 0 1 1 6-6 6.006 6.006 0 0 1 -6 6zm0-10a4 4 0 1 0 4 4 4 4 0 0 0 -4-4z"/><path d="m59.91 36.87a1 1 0 0 1 -1.98.32 4.962 4.962 0 0 0 -4.93-4.19h-4.45a4.666 4.666 0 0 0 -4.65 2.87 9.219 9.219 0 0 0 -.49 1.21 15.942 15.942 0 0 0 -.43 1.57l-1.67 5.11a2.954 2.954 0 0 1 -2.9 2.24h-2.41a3.009 3.009 0 0 0 -3 3l8-.01a1 1 0 0 1 0 2l-9 .01a1.052 1.052 0 0 1 -.71-.29 1.033 1.033 0 0 1 -.29-.71v-1a5 5 0 0 1 5-5h2.41a1.007 1.007 0 0 0 .98-.77l1.4-4.31.26-.8a15.249 15.249 0 0 1 .56-1.93 7.833 7.833 0 0 1 .37-.93 7.571 7.571 0 0 1 2.02-2.77 6.761 6.761 0 0 1 4.55-1.49h4.45a6.97 6.97 0 0 1 6.91 5.87z"/><path d="m50.319 58h-13.319a1 1 0 0 1 -1-1v-3.006a5 5 0 0 1 5-5h.009l2.591.006a1 1 0 0 0 .982-.821l1.839-8.116a4.985 4.985 0 0 1 4.913-4.063h7.266a3 3 0 0 1 2.952 3.536l-.007.031-2.377 11.074a8.986 8.986 0 0 1 -8.849 7.359zm-12.319-2h12.319a7 7 0 0 0 6.888-5.748l2.379-11.086a1 1 0 0 0 -.986-1.166h-7.266a3 3 0 0 0 -2.952 2.463l-1.839 8.115a2.986 2.986 0 0 1 -2.943 2.422l-2.6-.006a3 3 0 0 0 -3 3z"/></svg>